<svg version="1.1" xmlns="http://www.w3.org/2000/svg" viewBox="0 0 120 120" xml:space="preserve">
	<path fill-rule="evenodd" clip-rule="evenodd" d="M60.077,1.73c-32.883,0-59.549,26.663-59.549,59.555
	c0,26.313,17.062,48.634,40.729,56.51c2.978,0.543,4.064-1.292,4.064-2.87c0-1.415-0.052-5.163-0.08-10.133
	c-16.566,3.6-20.062-7.983-20.062-7.983c-2.708-6.876-6.612-8.711-6.612-8.711c-5.407-3.691,0.409-3.62,0.409-3.62
	c5.976,0.421,9.122,6.141,9.122,6.141c5.312,9.097,13.938,6.469,17.332,4.947c0.541-3.848,2.08-6.476,3.781-7.96
	c-13.224-1.508-27.126-6.612-27.126-29.435c0-6.502,2.321-11.818,6.13-15.98c-0.612-1.507-2.656-7.562,0.584-15.761
	c0,0,5-1.601,16.376,6.105c4.75-1.321,9.845-1.982,14.91-2.004c5.059,0.022,10.15,0.683,14.909,2.004
	c11.371-7.707,16.362-6.105,16.362-6.105c3.249,8.199,1.203,14.254,0.593,15.761c3.812,4.163,6.12,9.479,6.12,15.98
	c0,22.879-13.925,27.914-27.191,29.384c2.139,1.842,4.041,5.477,4.041,11.033c0,7.961-0.071,14.38-0.071,16.337
	c0,1.592,1.07,3.44,4.096,2.863c23.645-7.891,40.688-30.197,40.688-56.503C119.632,28.393,92.97,1.73,60.077,1.73z"/>
</svg>
